<svg width="960" height="540" viewBox="0 0 960 540" xmlns="http://www.w3.org/2000/svg" role="img" aria-labelledby="title desc">
  <title id="title">Full Preview modal highlights</title>
  <desc id="desc">Illustration of the Full Preview modal with graph visualization, counts, and segmentation summary cards.</desc>
  <defs>
    <linearGradient id="bg" x1="0%" y1="0%" x2="100%" y2="100%">
      <stop offset="0%" stop-color="#0f172a" />
      <stop offset="100%" stop-color="#131a2c" />
    </linearGradient>
    <linearGradient id="panel" x1="0%" y1="0%" x2="100%" y2="100%">
      <stop offset="0%" stop-color="#ffffff" />
      <stop offset="100%" stop-color="#f8fafc" />
    </linearGradient>
    <filter id="shadow" x="-10%" y="-10%" width="120%" height="120%">
      <feDropShadow dx="0" dy="10" stdDeviation="18" flood-color="#0f172a" flood-opacity="0.18" />
    </filter>
  </defs>
  <rect width="960" height="540" fill="url(#bg)" rx="28" />
  <g transform="translate(40 40)">
    <rect width="880" height="460" rx="24" fill="url(#panel)" filter="url(#shadow)" />
    <rect x="0" y="0" width="880" height="74" rx="24" fill="#1d4ed8" />
    <text x="36" y="46" font-family="'Inter',system-ui" font-size="26" font-weight="600" fill="#e0f2fe">Full Preview – Scenario: Campus Build</text>
    <g transform="translate(32 100)">
      <rect width="520" height="300" rx="20" fill="#f1f5f9" />
      <text x="24" y="36" font-family="'Inter',system-ui" font-size="18" font-weight="600" fill="#1e293b">Graph view</text>
      <rect x="24" y="60" width="472" height="220" rx="16" fill="#0f172a" />
      <g transform="translate(48 90)" stroke="#38bdf8" stroke-width="1.6" stroke-dasharray="8 6" fill="none" opacity="0.35">
        <circle cx="48" cy="52" r="46" />
        <circle cx="168" cy="124" r="60" />
        <circle cx="292" cy="48" r="40" />
        <circle cx="388" cy="132" r="54" />
        <path d="M48 52 L168 124 L292 48 L388 132" />
        <path d="M48 52 L292 48" />
        <path d="M48 52 L388 132" />
      </g>
      <g transform="translate(36 292)" font-family="'JetBrains Mono',monospace" font-size="12" fill="#334155">
        <text>seed = 4242 · layout = compact · docker vulns enabled</text>
      </g>
    </g>
    <g transform="translate(580 100)">
      <rect width="240" height="90" rx="18" fill="#eff6ff" />
      <text x="22" y="38" font-family="'Inter',system-ui" font-size="16" font-weight="600" fill="#1e3a8a">Counts</text>
      <text x="22" y="64" font-family="'Inter',system-ui" font-size="14" fill="#1f2937">Hosts: 84 · Routers: 12 · Switches: 16</text>
    </g>
    <g transform="translate(580 204)">
      <rect width="240" height="96" rx="18" fill="#fef3c7" />
      <text x="20" y="38" font-family="'Inter',system-ui" font-size="16" font-weight="600" fill="#b45309">Segmentation summary</text>
      <text x="20" y="64" font-family="'Inter',system-ui" font-size="13" fill="#92400e">Firewall: 6 routers · NAT: 2 routers · Custom: 4 scripts</text>
    </g>
    <g transform="translate(580 314)">
      <rect width="240" height="86" rx="18" fill="#dcfce7" />
      <text x="20" y="36" font-family="'Inter',system-ui" font-size="16" font-weight="600" fill="#166534">Traffic</text>
      <text x="20" y="60" font-family="'Inter',system-ui" font-size="13" fill="#14532d">26 flows · mix of burst + poisson patterns</text>
    </g>
    <g transform="translate(580 412)">
      <rect width="240" height="72" rx="18" fill="#fee2e2" />
      <text x="20" y="36" font-family="'Inter',system-ui" font-size="16" font-weight="600" fill="#b91c1c">Violations</text>
      <text x="20" y="58" font-family="'Inter',system-ui" font-size="13" fill="#7f1d1d">0 issues detected</text>
    </g>
    <g transform="translate(32 424)">
      <rect width="180" height="52" rx="16" fill="#1d4ed8" />
      <text x="48" y="30" font-family="'Inter',system-ui" font-size="14" font-weight="600" fill="#f8fafc">Execute</text>
    </g>
    <g transform="translate(224 424)">
      <rect width="180" height="52" rx="16" fill="#cbd5f5" />
      <text x="48" y="30" font-family="'Inter',system-ui" font-size="14" font-weight="600" fill="#1e3a8a">Export PNG</text>
    </g>
  </g>
</svg>
