<svg xmlns="http://www.w3.org/2000/svg" width="960" height="540" viewBox="0 0 960 540" role="img" aria-label="Mocked screenshot of CORE TopoGen GUI overview">
  <defs>
    <linearGradient id="bg" x1="0%" y1="0%" x2="0%" y2="100%">
      <stop offset="0%" stop-color="#f8fafc"/>
      <stop offset="100%" stop-color="#e2e8f0"/>
    </linearGradient>
    <linearGradient id="panel" x1="0%" y1="0%" x2="0%" y2="100%">
      <stop offset="0%" stop-color="#ffffff"/>
      <stop offset="100%" stop-color="#f1f5f9"/>
    </linearGradient>
    <style>
      .title { font-family: 'Segoe UI', system-ui, sans-serif; font-size: 32px; fill: #0f172a; font-weight: 600; }
      .subtitle { font-family: 'Segoe UI', system-ui, sans-serif; font-size: 18px; fill: #334155; }
      .label { font-family: 'Segoe UI', system-ui, sans-serif; font-size: 16px; fill: #475569; font-weight: 600; }
      .caption { font-family: 'Segoe UI', system-ui, sans-serif; font-size: 14px; fill: #64748b; }
      .badge { font-family: 'Segoe UI', system-ui, sans-serif; font-size: 13px; fill: #fff; font-weight: 600; }
      .mono { font-family: 'JetBrains Mono', 'SFMono-Regular', monospace; font-size: 13px; fill: #1e293b; }
    </style>
  </defs>
  <rect width="960" height="540" fill="url(#bg)" rx="24"/>
  <rect x="40" y="48" width="880" height="88" rx="18" fill="url(#panel)" stroke="#cbd5f5" stroke-width="1" />
  <text x="80" y="106" class="title">CORE TopoGen — Scenario Dashboard</text>
  <text x="82" y="132" class="subtitle">Manage scenarios, run previews, and launch CORE sessions.</text>

  <rect x="40" y="152" width="240" height="312" rx="18" fill="url(#panel)" stroke="#cbd5f5" stroke-width="1" />
  <text x="60" y="188" class="label">Scenario List</text>
  <rect x="56" y="206" width="208" height="36" rx="10" fill="#e0f2fe" />
  <text x="72" y="229" class="caption">Campus Prototype.xml</text>
  <rect x="56" y="250" width="208" height="36" rx="10" fill="#f1f5f9" />
  <text x="72" y="273" class="caption">Edge Lab Demo.xml</text>
  <rect x="56" y="294" width="208" height="36" rx="10" fill="#f1f5f9" />
  <text x="72" y="317" class="caption">Cyber Range Drill.xml</text>
  <rect x="56" y="338" width="208" height="36" rx="10" fill="#f8fafc" stroke="#cbd5f5" stroke-dasharray="6 6" />
  <text x="72" y="361" class="caption">+ New Scenario</text>

  <rect x="300" y="152" width="620" height="312" rx="18" fill="url(#panel)" stroke="#cbd5f5" stroke-width="1" />
  <text x="324" y="188" class="label">Full Preview</text>
  <rect x="324" y="204" width="160" height="26" rx="8" fill="#dcfce7" />
  <text x="342" y="222" class="badge" fill="#166534">SEED 1042</text>
  <rect x="324" y="244" width="280" height="164" rx="12" fill="#f8fafc" stroke="#cbd5f5" stroke-width="1" />
  <text x="344" y="274" class="caption">Routers: 4   Hosts: 28   Switches: 8</text>
  <text x="344" y="300" class="caption">✅ Segmentation policy applied</text>
  <text x="344" y="326" class="caption">✅ Traffic scripts prepared</text>
  <text x="344" y="352" class="caption">✅ Report path: reports/scenario_2025.md</text>
  <rect x="644" y="244" width="248" height="164" rx="12" fill="#0ea5e9" opacity="0.15" />
  <text x="664" y="274" class="caption" fill="#0369a1">Live graph renders topology layout here</text>
  <rect x="644" y="328" width="180" height="34" rx="8" fill="#38bdf8" />
  <text x="660" y="352" class="badge">Generate Full Preview</text>

  <rect x="300" y="376" width="620" height="88" rx="16" fill="#0f172a" opacity="0.92" />
  <text x="324" y="414" class="badge">LOGS DOCK</text>
  <text x="324" y="440" class="mono">[12:04:01] INFO    Scenario report written to /work/reports/scenario_report_...</text>
  <text x="324" y="466" class="mono">[12:04:02] INFO    CORE session started (id=42)</text>
</svg>
