<svg xmlns="http://www.w3.org/2000/svg" width="960" height="420" viewBox="0 0 960 420" role="img" aria-label="Mocked screenshot of logs dock with follow toggle">
  <defs>
    <linearGradient id="dockBg" x1="0%" y1="0%" x2="0%" y2="100%">
      <stop offset="0%" stop-color="#ffffff"/>
      <stop offset="100%" stop-color="#f8fafc"/>
    </linearGradient>
    <style>
      .title { font-family: 'Segoe UI', system-ui, sans-serif; font-size: 20px; fill: #0f172a; font-weight: 600; }
      .label { font-family: 'Segoe UI', system-ui, sans-serif; font-size: 15px; fill: #334155; font-weight: 600; }
      .caption { font-family: 'Segoe UI', system-ui, sans-serif; font-size: 13px; fill: #475569; }
      .mono { font-family: 'JetBrains Mono', 'SFMono-Regular', monospace; font-size: 13px; fill: #0f172a; }
    </style>
  </defs>
  <rect width="960" height="420" fill="#e2e8f0" rx="24"/>
  <rect x="40" y="32" width="880" height="356" rx="18" fill="url(#dockBg)" stroke="#cbd5f5" stroke-width="1.2" />
  <text x="64" y="78" class="title">Logs Dock</text>
  <rect x="64" y="96" width="832" height="48" rx="12" fill="#f1f5f9" stroke="#cbd5f5" />
  <text x="84" y="124" class="label">Filters</text>
  <rect x="172" y="108" width="92" height="24" rx="8" fill="#0ea5e9" opacity="0.25" />
  <text x="186" y="124" class="caption">Level: INFO</text>
  <rect x="288" y="108" width="170" height="24" rx="8" fill="#e2e8f0" />
  <text x="304" y="124" class="caption">Filter /regex/</text>
  <rect x="486" y="108" width="104" height="24" rx="8" fill="#22c55e" opacity="0.3" />
  <text x="502" y="124" class="caption">Follow: On</text>
  <rect x="618" y="108" width="90" height="24" rx="8" fill="#f97316" opacity="0.3" />
  <text x="632" y="124" class="caption">Clear Logs</text>

  <rect x="64" y="160" width="832" height="208" rx="14" fill="#0f172a" opacity="0.94" />
  <text x="84" y="196" class="mono" fill="#38bdf8">[12:03:11] INFO    Launching CLI with seed=1042</text>
  <text x="84" y="224" class="mono" fill="#38bdf8">[12:03:12] INFO    Docker composition prepared for 2 vulnerability slots</text>
  <text x="84" y="252" class="mono" fill="#facc15">[12:03:18] WARN    Segmentation fallback rule applied for unmatched subnet</text>
  <text x="84" y="280" class="mono" fill="#4ade80">[12:03:21] INFO    Scenario report written to reports/scenario_report_20251009.md</text>
  <text x="84" y="308" class="mono" fill="#4ade80">[12:03:24] INFO    CORE session started (id=84)</text>
  <text x="84" y="336" class="mono" fill="#fca5a5">[12:03:42] ERROR   Traffic plugin skipped (core-daemon unreachable)</text>
</svg>
